<?xml version="1.0" encoding="UTF-8"?>
<svg width="512" height="512" viewBox="0 0 512 512" fill="none" xmlns="http://www.w3.org/2000/svg">
  <!-- Background Circle -->
  <circle cx="256" cy="256" r="248" fill="#F0F9FF" stroke="#0EA5E9" stroke-width="16"/>
  
  <!-- Dollar Sign -->
  <path d="M256 140C243.2 140 232.4 142.6 223.6 147.8C214.8 152.8 208 160 203.2 169.4C198.4 178.6 196 189.2 196 201C196 213 198.4 223.2 203.2 231.6C208 240 214.8 246.8 223.6 252C232.4 257.2 243.2 260.4 256 261.6V330H276V261.6C288.8 260.4 299.6 257.2 308.4 252C317.2 246.8 324 240 328.8 231.6C333.6 223.2 336 213 336 201C336 189.2 333.6 178.6 328.8 169.4C324 160 317.2 152.8 308.4 147.8C299.6 142.6 288.8 140 276 140H256ZM256 160H276C284.4 160 291.6 161.8 297.6 165.4C303.6 168.8 308.2 173.6 311.4 179.8C314.6 186 316.2 193 316.2 201C316.2 209 314.6 216 311.4 222.2C308.2 228.4 303.6 233.2 297.6 236.6C291.6 240 284.4 241.8 276 241.8H256V160ZM256 241.8C247.6 241.8 240.4 240 234.4 236.6C228.4 233.2 223.8 228.4 220.6 222.2C217.4 216 215.8 209 215.8 201C215.8 193 217.4 186 220.6 179.8C223.8 173.6 228.4 168.8 234.4 165.4C240.4 161.8 247.6 160 256 160V241.8Z" fill="#0EA5E9"/>
  
  <!-- Line Chart -->
  <path d="M120 340L180 280L240 320L300 260L360 300L420 220" stroke="#0EA5E9" stroke-width="12" stroke-linecap="round" stroke-linejoin="round"/>
  
  <!-- Dots on Line -->
  <circle cx="180" cy="280" r="8" fill="#0EA5E9"/>
  <circle cx="240" cy="320" r="8" fill="#0EA5E9"/>
  <circle cx="300" cy="260" r="8" fill="#0EA5E9"/>
  <circle cx="360" cy="300" r="8" fill="#0EA5E9"/>
  <circle cx="420" cy="220" r="8" fill="#0EA5E9"/>
  
  <!-- Base Line -->
  <line x1="120" y1="360" x2="420" y2="360" stroke="#0EA5E9" stroke-width="8" stroke-linecap="round"/>
  
  <!-- AI Element -->
  <path d="M450 140C450 128.954 441.046 120 430 120C418.954 120 410 128.954 410 140C410 151.046 418.954 160 430 160C441.046 160 450 151.046 450 140Z" fill="#0EA5E9"/>
  <path d="M450 140L430 120M450 140L430 160" stroke="#F0F9FF" stroke-width="4" stroke-linecap="round"/>
  
  <!-- Connect AI to Finance -->
  <path d="M400 150C380 180 370 220 350 240" stroke="#0EA5E9" stroke-width="4" stroke-dasharray="8 8" stroke-linecap="round"/>
</svg>
